<svg width="30" height="30" viewBox="0 0 30 30" fill="none" xmlns="http://www.w3.org/2000/svg">
<g clip-path="url(#clip0_10_228)">
<path d="M27.7025 7.07003C26.7482 7.49215 25.7362 7.76937 24.7 7.89253C25.7922 7.23932 26.6096 6.2113 27 5.00003C25.975 5.61003 24.8513 6.03753 23.68 6.26878C22.8933 5.427 21.8505 4.86873 20.7137 4.68076C19.5769 4.49279 18.4099 4.68564 17.3941 5.22935C16.3782 5.77305 15.5705 6.63714 15.0964 7.68727C14.6223 8.73741 14.5084 9.91476 14.7725 11.0363C12.6939 10.9321 10.6604 10.3919 8.80411 9.45086C6.94781 8.50979 5.31016 7.18884 3.9975 5.57378C3.53287 6.37184 3.2887 7.27906 3.29 8.20253C3.29 10.015 4.2125 11.6163 5.615 12.5538C4.78502 12.5277 3.9733 12.3035 3.2475 11.9V11.965C3.24776 13.1722 3.66547 14.3421 4.42981 15.2764C5.19416 16.2107 6.25811 16.8519 7.44125 17.0913C6.67077 17.3001 5.86289 17.3309 5.07875 17.1813C5.41234 18.2203 6.06251 19.129 6.93824 19.7802C7.81398 20.4313 8.87141 20.7923 9.9625 20.8125C8.87811 21.6642 7.63648 22.2938 6.30861 22.6652C4.98073 23.0367 3.59266 23.1428 2.22375 22.9775C4.61338 24.5143 7.39513 25.3302 10.2363 25.3275C19.8525 25.3275 25.1113 17.3613 25.1113 10.4525C25.1113 10.2275 25.105 10 25.095 9.77753C26.1186 9.03774 27.002 8.1213 27.7038 7.07128L27.7025 7.07003Z" fill="white"/>
</g>
<defs>
<clipPath id="clip0_10_228">
<rect width="30" height="30" fill="white"/>
</clipPath>
</defs>
</svg>
