<svg width="653" height="735" viewBox="0 0 653 735" fill="none" xmlns="http://www.w3.org/2000/svg">
<g filter="url(#filter0_d_620_941)">
<path fill-rule="evenodd" clip-rule="evenodd" d="M34.1799 34.9202C32 39.1984 32 44.799 32 56V695L49.0723 695C49.0723 687.873 55.9515 682.096 64.4375 682.096C72.9235 682.096 79.8027 687.873 79.8027 695H93.4609C93.4609 687.873 100.34 682.096 108.826 682.096C117.312 682.096 124.191 687.873 124.191 695H137.85C137.85 687.873 144.729 682.096 153.215 682.096C161.701 682.096 168.58 687.873 168.58 695H182.237C182.237 687.873 189.117 682.096 197.603 682.096C206.089 682.096 212.968 687.873 212.968 695H226.626C226.626 687.873 233.505 682.096 241.991 682.096C250.477 682.096 257.356 687.873 257.356 695H271.015C271.015 687.873 277.894 682.096 286.38 682.096C294.866 682.096 301.745 687.873 301.745 695H315.403C315.403 687.873 322.283 682.096 330.769 682.096C339.255 682.096 346.134 687.873 346.134 695H359.791C359.791 687.873 366.67 682.096 375.156 682.096C383.642 682.096 390.521 687.873 390.521 695H404.18C404.18 687.873 411.059 682.096 419.545 682.096C428.031 682.096 434.91 687.873 434.91 695H448.568C448.568 687.873 455.448 682.096 463.934 682.096C472.42 682.096 479.299 687.873 479.299 695H492.956C492.956 687.873 499.835 682.096 508.321 682.096C516.807 682.096 523.686 687.873 523.686 695H537.345C537.345 687.873 544.224 682.096 552.71 682.096C561.196 682.096 568.075 687.873 568.075 695H581.733C581.733 687.873 588.613 682.096 597.099 682.096C605.585 682.096 612.464 687.873 612.464 695L621 695V56C621 44.799 621 39.1984 618.82 34.9202C616.903 31.1569 613.843 28.0973 610.08 26.1799C605.802 24 600.201 24 589 24H64C52.799 24 47.1984 24 42.9202 26.1799C39.1569 28.0973 36.0973 31.1569 34.1799 34.9202Z" fill="white"/>
</g>
<defs>
<filter id="filter0_d_620_941" x="0" y="0" width="653" height="735" filterUnits="userSpaceOnUse" color-interpolation-filters="sRGB">
<feFlood flood-opacity="0" result="BackgroundImageFix"/>
<feColorMatrix in="SourceAlpha" type="matrix" values="0 0 0 0 0 0 0 0 0 0 0 0 0 0 0 0 0 0 127 0" result="hardAlpha"/>
<feOffset dy="8"/>
<feGaussianBlur stdDeviation="16"/>
<feComposite in2="hardAlpha" operator="out"/>
<feColorMatrix type="matrix" values="0 0 0 0 0.4 0 0 0 0 0.4 0 0 0 0 0.4 0 0 0 0.16 0"/>
<feBlend mode="normal" in2="BackgroundImageFix" result="effect1_dropShadow_620_941"/>
<feBlend mode="normal" in="SourceGraphic" in2="effect1_dropShadow_620_941" result="shape"/>
</filter>
</defs>
</svg>
