<svg width="40" height="40" viewBox="0 0 40 40" fill="none" xmlns="http://www.w3.org/2000/svg">
<g clip-path="url(#clip0_3_98)">
<path d="M23.8837 12.7817L25.5208 11.1446L28.9021 14.5259L27.265 16.163L23.8837 12.7817Z" fill="#C00096"/>
<path d="M20.6094 16.056L22.2465 14.4189L25.6278 17.8003L23.9907 19.4374L20.6094 16.056Z" fill="#C00096"/>
<path d="M29.4626 5.18951C29.2755 5.27858 29.1922 5.49748 29.2729 5.68779L29.2882 5.72365L29.6809 6.99162C29.6599 7.01053 29.6389 7.02936 29.6185 7.04967L27.1625 9.50561L30.5443 12.8874L33.0004 10.4315C33.0279 10.404 33.0539 10.3758 33.0789 10.3471L34.3482 10.7403C34.5301 10.7966 34.7289 10.7094 34.8108 10.5375C36.4044 7.18928 39.6354 5.63631 39.7767 5.56975C39.8713 5.52592 39.9451 5.44428 39.9792 5.34569C40.0132 5.24725 40.0057 5.13748 39.9585 5.04459L38.3317 1.84647C38.3132 1.81022 38.2892 1.77725 38.2604 1.7485C38.2317 1.71975 38.1987 1.69576 38.1625 1.6774L35.0099 0.0737315L34.983 0.057169C34.9024 0.0074815 34.8066 -0.0107216 34.7132 0.00584088C34.5891 0.0278721 34.4835 0.109278 34.4304 0.223653C34.415 0.257091 32.8435 3.58045 29.4626 5.18951Z" fill="#C00096"/>
<path d="M20.8806 30.2374C20.837 29.5353 21.289 28.9081 21.9552 28.7461C23.1294 28.4605 24.2016 27.8537 25.0559 26.9913C25.6634 26.3781 26.1359 25.6624 26.4605 24.8641C26.6362 24.4323 26.5355 23.938 26.2069 23.6094C26.2019 23.6044 26.1968 23.5994 26.1916 23.5945C25.8509 23.266 25.3447 23.1779 24.913 23.3721C23.7362 23.9016 22.1473 23.612 20.7477 22.6839L22.3575 21.0742L18.9756 17.6924L17.9561 18.712C17.7317 17.5913 17.9319 16.5384 18.6133 15.857C18.8091 15.6612 19.0395 15.5005 19.298 15.3793C19.7458 15.1695 20.0108 14.6984 19.9577 14.2068C19.9048 13.7152 19.5453 13.3115 19.0631 13.202C16.8544 12.7002 14.5827 13.3463 12.9864 14.9302C12.1222 15.7877 11.5155 16.864 11.232 18.0425C11.0719 18.708 10.445 19.1605 9.74125 19.1184C7.06546 18.9583 4.45132 19.9461 2.56898 21.8285C-0.856489 25.2539 -0.856489 30.8275 2.56898 34.2529L5.74718 37.4311C9.17265 40.8565 14.7462 40.8565 18.1717 37.4311C20.06 35.5428 21.0473 32.9209 20.8806 30.2374ZM11.8377 30.6027L9.3975 28.1625C8.94539 27.7104 8.94539 26.9774 9.3975 26.5252C9.8496 26.0731 10.5827 26.0731 11.0348 26.5252L13.475 28.9653C13.9271 29.4175 13.9271 30.1505 13.475 30.6027C13.0228 31.0548 12.2898 31.0548 11.8377 30.6027ZM15.4979 26.9425L13.0577 24.5023C12.6056 24.0502 12.6056 23.3171 13.0577 22.8649C13.5098 22.4128 14.2429 22.4128 14.6951 22.8649L17.1352 25.3051C17.5873 25.7572 17.5873 26.4903 17.1352 26.9425C16.6831 27.3946 15.95 27.3946 15.4979 26.9425Z" fill="#C00096"/>
</g>
<defs>
<clipPath id="clip0_3_98">
<rect width="40" height="40" fill="white"/>
</clipPath>
</defs>
</svg>
